<?xml version="1.0" encoding="UTF-8"?>
<svg width="2000px" height="2000px" viewBox="0 0 2000 2000" version="1.1" xmlns="http://www.w3.org/2000/svg" xmlns:xlink="http://www.w3.org/1999/xlink">
    <!-- Generator: Sketch 49.3 (51167) - http://www.bohemiancoding.com/sketch -->
    <title>Square</title>
    <desc>Created with Sketch.</desc>
    <defs></defs>
    <g id="Square" stroke="none" stroke-width="1" fill="none" fill-rule="evenodd">
        <rect id="Rectangle" fill="#4A4A4A" x="-242" y="-76" width="2617" height="2244"></rect>
        <g id="icon" transform="translate(251.000000, 271.000000)" fill="#FFFFFF" fill-rule="nonzero">
            <path d="M909.97561,1458.73171 L586.195122,1458.73171 C582.536585,1458.73171 580.707317,1458.73171 578.878049,1456.90244 L286.195122,1316.04878 C278.878049,1312.39024 275.219512,1303.2439 277.04878,1295.92683 C278.878049,1286.78049 286.195122,1281.29268 295.341463,1281.29268 L840.463415,1281.29268 L1202.65854,827.634146 C1206.31707,822.146341 1213.63415,820.317073 1220.95122,820.317073 C1228.26829,822.146341 1233.7561,827.634146 1235.58537,834.95122 L1274,1006.90244 C1275.82927,1012.39024 1274,1017.87805 1270.34146,1021.53659 L924.609756,1451.41463 C920.95122,1456.90244 915.463415,1458.73171 909.97561,1458.73171 Z M589.853659,1422.14634 L900.829268,1422.14634 L1233.7561,1005.07317 L1206.31707,878.853659 L860.585366,1310.56098 C856.926829,1314.21951 851.439024,1317.87805 845.95122,1317.87805 L374,1317.87805 L589.853659,1422.14634 Z" id="Shape"></path>
            <path d="M909.97561,1458.73171 C904.487805,1458.73171 899,1456.90244 895.341463,1451.41463 C889.853659,1444.09756 889.853659,1434.95122 895.341463,1429.46341 L1233.7561,1005.07317 L1103.87805,438 C1102.04878,430.682927 1105.70732,423.365854 1111.19512,419.707317 C1116.68293,416.04878 1124,414.219512 1131.31707,417.878049 L1292.29268,494.707317 C1297.78049,496.536585 1301.43902,502.02439 1301.43902,507.512195 L1424,1041.65854 C1425.82927,1047.14634 1424,1052.63415 1420.34146,1056.29268 L1217.29268,1310.56098 C1215.46341,1312.39024 1213.63415,1314.21951 1211.80488,1316.04878 L919.121951,1456.90244 C915.463415,1458.73171 913.634146,1458.73171 909.97561,1458.73171 Z M1149.60976,467.268293 L1272.17073,1005.07317 C1274,1010.56098 1272.17073,1016.04878 1268.5122,1019.70732 L974,1389.21951 L1189.85366,1284.95122 L1383.7561,1041.65854 L1264.85366,523.97561 L1149.60976,467.268293 Z" id="Shape"></path>
            <path d="M1405.70732,1063.60976 C1396.56098,1063.60976 1389.2439,1058.12195 1387.41463,1048.97561 L1266.68293,522.146341 L741.682927,271.536585 C736.195122,267.878049 730.707317,262.390244 730.707317,255.073171 C730.707317,247.756098 734.365854,242.268293 741.682927,238.609756 L904.487805,159.95122 C909.97561,158.121951 915.463415,158.121951 920.95122,159.95122 L1413.02439,397.756098 C1418.5122,399.585366 1422.17073,405.073171 1422.17073,410.560976 L1493.5122,727.02439 C1493.5122,728.853659 1493.5122,732.512195 1493.5122,734.341463 L1422.17073,1050.80488 C1420.34146,1058.12195 1413.02439,1063.60976 1405.70732,1063.60976 Z M791.073171,255.073171 L1290.46341,496.536585 C1295.95122,498.365854 1299.60976,503.853659 1299.60976,509.341463 L1403.87805,966.658537 L1456.92683,732.512195 L1389.2439,425.195122 L911.804878,196.536585 L791.073171,255.073171 Z" id="Shape"></path>
            <path d="M282.536585,856.902439 C277.04878,856.902439 271.560976,855.073171 267.902439,849.585366 L154.487805,708.731707 C150.829268,705.073171 149,699.585366 150.829268,694.097561 L273.390244,156.292683 C275.219512,150.804878 278.878049,147.146341 282.536585,143.487805 L575.219512,2.63414634 C577.04878,0.804878049 580.707317,0.804878049 582.536585,0.804878049 L906.317073,0.804878049 C915.463415,0.804878049 922.780488,6.29268293 924.609756,15.4390244 C926.439024,24.5853659 922.780488,31.902439 915.463415,35.5609756 L432.536585,269.707317 L300.829268,844.097561 C299,851.414634 293.512195,856.902439 286.195122,858.731707 C286.195122,856.902439 284.365854,856.902439 282.536585,856.902439 Z M189.243902,692.268293 L273.390244,796.536585 L397.780488,251.414634 C399.609756,245.926829 403.268293,242.268293 406.926829,238.609756 L829.487805,37.3902439 L589.853659,37.3902439 L308.146341,172.756098 L189.243902,692.268293 Z" id="Shape"></path>
            <path d="M375.829268,452.634146 C372.170732,452.634146 368.512195,450.804878 364.853659,448.97561 C359.365854,445.317073 357.536585,438 357.536585,430.682927 L397.780488,253.243902 C399.609756,247.756098 403.268293,244.097561 406.926829,240.439024 L900.829268,2.63414634 C906.317073,0.804878049 911.804878,0.804878049 917.292683,2.63414634 L1209.97561,143.487805 C1211.80488,145.317073 1215.46341,147.146341 1215.46341,148.97561 L1418.5122,403.243902 C1424,410.560976 1424,419.707317 1418.5122,425.195122 C1413.02439,432.512195 1403.87805,434.341463 1396.56098,430.682927 L911.804878,196.536585 L383.146341,450.804878 C381.317073,452.634146 377.658537,452.634146 375.829268,452.634146 Z M432.536585,269.707317 L401.439024,401.414634 L904.487805,159.95122 C909.97561,158.121951 915.463415,158.121951 920.95122,159.95122 L1341.68293,363 L1191.68293,174.585366 L909.97561,39.2195122 L432.536585,269.707317 Z" id="Shape"></path>
            <path d="M847.780488,1317.87805 L293.512195,1317.87805 C288.02439,1317.87805 282.536585,1316.04878 278.878049,1310.56098 L75.8292683,1058.12195 C74,1056.29268 72.1707317,1052.63415 72.1707317,1050.80488 L0.829268293,734.341463 C-1,725.195122 2.65853659,717.878049 9.97560976,714.219512 C17.2926829,710.560976 26.4390244,712.390244 31.9268293,719.707317 L372.170732,1145.92683 L955.707317,1145.92683 C963.02439,1145.92683 968.512195,1149.58537 972.170732,1156.90244 C975.829268,1162.39024 974,1171.53659 970.341463,1177.02439 L860.585366,1314.21951 C856.926829,1316.04878 853.268293,1317.87805 847.780488,1317.87805 Z M302.658537,1281.29268 L838.634146,1281.29268 L919.121951,1180.68293 L363.02439,1180.68293 C357.536585,1180.68293 352.04878,1178.85366 348.390244,1173.36585 L53.8780488,803.853659 L106.926829,1038 L302.658537,1281.29268 Z" id="Shape"></path>
            <path d="M542.292683,1180.68293 L364.853659,1180.68293 C359.365854,1180.68293 353.878049,1178.85366 350.219512,1173.36585 L4.48780488,741.658537 C0.829268293,738 -1,732.512195 0.829268293,727.02439 L72.1707317,408.731707 C72.1707317,406.902439 74,403.243902 75.8292683,401.414634 L278.878049,147.146341 C284.365854,139.829268 293.512195,138 300.829268,141.658537 C308.146341,145.317073 311.804878,154.463415 309.97561,161.780488 L189.243902,690.439024 L555.097561,1149.58537 C558.756098,1155.07317 560.585366,1162.39024 556.926829,1169.70732 C555.097561,1177.02439 547.780488,1180.68293 542.292683,1180.68293 Z M372.170732,1144.09756 L503.878049,1144.09756 L156.317073,708.731707 C152.658537,705.073171 150.829268,699.585366 152.658537,694.097561 L256.926829,234.95122 L106.926829,421.536585 L37.4146341,725.195122 L372.170732,1144.09756 Z" id="Shape"></path>
        </g>
    </g>
</svg>